<?xml version="1.0" encoding="UTF-8" standalone="no"?>
<!-- Created with Inkscape (http://www.inkscape.org/) -->

<svg xmlns:dc="http://purl.org/dc/elements/1.1/" xmlns:cc="http://creativecommons.org/ns#" xmlns:rdf="http://www.w3.org/1999/02/22-rdf-syntax-ns#" xmlns:svg="http://www.w3.org/2000/svg" xmlns="http://www.w3.org/2000/svg" xmlns:xlink="http://www.w3.org/1999/xlink" xmlns:sodipodi="http://sodipodi.sourceforge.net/DTD/sodipodi-0.dtd" xmlns:inkscape="http://www.inkscape.org/namespaces/inkscape" width="32" height="32" viewBox="0 0 32 32.000001" id="svg4390" version="1.1" inkscape:version="0.91 r13725" sodipodi:docname="star-logo-32.svg" inkscape:export-filename="/net/Work/Proj/Eganovo/design/star-logo01.png" inkscape:export-xdpi="90" inkscape:export-ydpi="90">
  <defs id="defs4392" />
  <sodipodi:namedview id="base" pagecolor="#d0d0d0" bordercolor="#666666" borderopacity="1.0" inkscape:pageopacity="0" inkscape:pageshadow="2" inkscape:zoom="14.321141" inkscape:cx="-5.5086144" inkscape:cy="8.3168038" inkscape:document-units="px" inkscape:current-layer="svg4390" showgrid="false" units="px" inkscape:showpageshadow="false" showguides="false" inkscape:window-width="1506" inkscape:window-height="1051" inkscape:window-x="66" inkscape:window-y="1" inkscape:window-maximized="0" inkscape:object-nodes="true" inkscape:object-paths="true" inkscape:snap-intersection-paths="true" inkscape:snap-page="true">
    <sodipodi:guide position="10.848214,16" orientation="0,-32" id="guide8874" />
    <sodipodi:guide position="16,18.392858" orientation="32,0" id="guide8876" />
  </sodipodi:namedview>
  <metadata id="metadata4395">
    <rdf:RDF>
      <cc:Work rdf:about="">
        <dc:format>image/svg+xml</dc:format>
        <dc:type rdf:resource="http://purl.org/dc/dcmitype/StillImage" />
        <dc:title></dc:title>
      </cc:Work>
    </rdf:RDF>
  </metadata>
  <g inkscape:label="Layer 1" inkscape:groupmode="layer" id="layer1" transform="translate(0,-1020.3622)" />
  <path id="path4157-5" style="fill:#ffffff;fill-rule:evenodd;stroke:none;stroke-width:1px;stroke-linecap:butt;stroke-linejoin:miter;stroke-opacity:1" d="M 16,1.9900695e-6 C 16.448137,3.5733765 16.672407,6.4417403 18.790716,10.441507 16.619896,10.37399 16.38099,11.768692 16,13.922368 M 16,1.9900695e-6 C 15.659314,3.6747065 15.517685,5.800284 13.209284,10.441507 16.359,10.335897 15.556552,12.502223 16,13.922368" inkscape:tile-cx="16" inkscape:tile-cy="7.0830725" inkscape:tile-w="5.230958" inkscape:tile-h="13.048141" inkscape:tile-x0="13.384521" inkscape:tile-y0="0.55900204" inkscape:connector-curvature="0" sodipodi:nodetypes="cccccc" />
  <use x="0" y="0" inkscape:tiled-clone-of="#path4157-5" xlink:href="#path4157-5" id="use4175" transform="matrix(-0.99999993,3.755213e-4,-3.755213e-4,-0.99999993,31.999999,31.993995)" width="100%" height="100%" />
  <use x="0" y="0" inkscape:tiled-clone-of="#path4157-5" xlink:href="#path4157-5" transform="matrix(0,1,-1,0,32.000002,4.2093869e-7)" id="use4177" width="100%" height="100%" />
  <use x="0" y="0" inkscape:tiled-clone-of="#path4157-5" xlink:href="#path4157-5" transform="matrix(0,-1,1,0,-1.962274e-6,32)" id="use4179" width="100%" height="100%" />
  <rect style="color:#000000;display:inline;overflow:visible;visibility:visible;opacity:1;fill:#ffffff;fill-opacity:1;fill-rule:nonzero;stroke:none;stroke-width:0.01;stroke-linecap:square;stroke-linejoin:round;stroke-miterlimit:4;stroke-dasharray:none;stroke-opacity:1;marker:none;enable-background:accumulate" id="rect4185" width="2.2885947" height="2.2885945" x="-1.4675014" y="21.447157" rx="0.042720433" ry="0.042720433" transform="matrix(0.69812193,-0.71597889,0.71597889,0.69812193,0,0)" />
  <g id="g4284" inkscape:tile-cx="9.8946332" inkscape:tile-cy="9.906728" inkscape:tile-w="9.4003363" inkscape:tile-h="9.4237122" inkscape:tile-x0="5.1943931" inkscape:tile-y0="5.1950465" transform="matrix(1.067,0,0,1.067,-1.0720003,-1.0720004)">
    <path sodipodi:nodetypes="ccccccc" inkscape:connector-curvature="0" d="M 5.396713,5.396713 C 6.5659409,6.2337428 8.5180741,7.5050718 9.8789525,7.9971308 9.5484455,8.3452161 9.5092589,9.644575 10.434976,10.434976 M 5.3965613,5.4205987 C 6.236818,6.5743048 7.3952044,8.4273705 7.8863157,9.8526341 8.8999012,9.3611194 10.179455,10.17583 10.434976,10.434976 c 0.631346,0.631346 3.957729,3.981767 3.957729,3.981767" style="fill:#ffffff;fill-rule:evenodd;stroke:#ffffff;stroke-width:0.40000001;stroke-linecap:round;stroke-linejoin:round;stroke-miterlimit:4;stroke-dasharray:none;stroke-opacity:1" id="path4187-3" />
    <path inkscape:transform-center-x="0.13218392" inkscape:transform-center-y="0.064747826" transform="matrix(-0.00927258,0.07977345,0.03896684,-0.01782997,11.760451,9.5272937)" d="M 6.5041392,8.9096737 C 7.4311698,8.1545292 8.746737,8.8735325 9.2866282,9.7414956 10.577965,11.81753 9.0603983,14.375223 7.1210369,15.36587 3.2125628,17.362361 -1.2405431,14.568799 -2.8484624,10.901019 -5.7364199,4.3133796 -1.0658351,-2.8392547 5.1513293,-5.2482739 11.787135,-7.8195078 19.346152,-5.5875806 24.308116,-0.70841311" sodipodi:t0="0.38249433" sodipodi:argument="-31.385757" sodipodi:radius="20.685904" sodipodi:revolution="1.9086218" sodipodi:expansion="3.0599999" sodipodi:cy="9.9974346" sodipodi:cx="6.6080761" id="path4205" style="fill:none;fill-rule:evenodd;stroke:#ffffff;stroke-width:7.37311268;stroke-linecap:butt;stroke-linejoin:miter;stroke-miterlimit:1.20000005;stroke-dasharray:none;stroke-opacity:1" sodipodi:type="spiral" />
    <path inkscape:transform-center-x="-0.13218394" inkscape:transform-center-y="0.064747826" transform="matrix(0.07977345,-0.00927258,-0.01782997,0.03896684,9.5478994,11.739845)" d="M 6.5451917,8.8776865 C 7.5231341,8.1488191 8.8331574,8.9347973 9.3472154,9.8436062 10.570285,12.005885 8.9267529,14.539861 6.9151736,15.465752 2.8749819,17.325375 -1.5206597,14.318441 -2.9993265,10.536981 -5.6487899,3.7613902 -0.64316087,-3.2795381 5.7398389,-5.4627914 11.647148,-7.4833386 18.240637,-5.8222796 22.97936,-1.9069092" sodipodi:t0="0.3885051" sodipodi:argument="-31.385757" sodipodi:radius="20.241846" sodipodi:revolution="1.8951354" sodipodi:expansion="3.0599999" sodipodi:cy="9.9974346" sodipodi:cx="6.6080761" id="path4205-3" style="fill:none;fill-rule:evenodd;stroke:#ffffff;stroke-width:7.37311268;stroke-linecap:butt;stroke-linejoin:miter;stroke-miterlimit:1.20000005;stroke-dasharray:none;stroke-opacity:1" sodipodi:type="spiral" />
  </g>
  <use x="0" y="0" inkscape:tiled-clone-of="#g4284" xlink:href="#g4284" id="use4289" transform="matrix(-1,0,0,-1,31.99984,32.025488)" width="100%" height="100%" />
  <use x="0" y="0" inkscape:tiled-clone-of="#g4284" xlink:href="#g4284" transform="matrix(0,1,-1,0,32.025486,1.617404e-4)" id="use4291" width="100%" height="100%" />
  <use x="0" y="0" inkscape:tiled-clone-of="#g4284" xlink:href="#g4284" transform="matrix(0,-1,1,0,-0.02548798,31.99984)" id="use4293" width="100%" height="100%" />
</svg>
